# Blender v2.79 (sub 0) OBJ File: 'Closet.blend'
# www.blender.org
#mtllib Closet.mtl
o closet
v -0.035668 0.741402 0.532982
v -0.035668 0.741402 0.545803
v -0.035668 0.748242 0.532982
v -0.035668 0.748242 0.545803
v -0.025522 0.741402 0.532982
v -0.025522 0.741402 0.545803
v -0.025522 0.748242 0.532982
v -0.025522 0.748242 0.545803
v -0.035668 0.689913 0.532982
v -0.035668 0.689913 0.545803
v -0.035668 0.696753 0.532982
v -0.035668 0.696753 0.545803
v -0.025522 0.689913 0.532982
v -0.025522 0.689913 0.545803
v -0.025522 0.696753 0.532982
v -0.025522 0.696753 0.545803
v -0.035668 0.689913 0.548611
v -0.035668 0.696753 0.548611
v -0.025522 0.696753 0.548611
v -0.025522 0.689913 0.548611
v -0.035668 0.741402 0.548611
v -0.035668 0.748242 0.548611
v -0.025522 0.748242 0.548611
v -0.025522 0.741402 0.548611
v -0.025522 0.661833 0.545803
v -0.035668 0.661833 0.545803
v -0.025522 0.661833 0.548611
v -0.035668 0.661833 0.548611
v -0.035668 0.776322 0.545803
v -0.025522 0.776322 0.545803
v -0.035668 0.776322 0.548611
v -0.025522 0.776322 0.548611
v -0.035668 0.741402 0.545803
v -0.025522 0.741402 0.545803
v -0.035668 0.741402 0.548611
v -0.025522 0.741402 0.548611
v 0.025692 0.741402 0.532982
v 0.025692 0.741402 0.545803
v 0.025692 0.748242 0.532982
v 0.025692 0.748242 0.545803
v 0.035838 0.741402 0.532982
v 0.035838 0.741402 0.545803
v 0.035838 0.748242 0.532982
v 0.035838 0.748242 0.545803
v 0.025692 0.689913 0.532982
v 0.025692 0.689913 0.545803
v 0.025692 0.696753 0.532982
v 0.025692 0.696753 0.545803
v 0.035838 0.689913 0.532982
v 0.035838 0.689913 0.545803
v 0.035838 0.696753 0.532982
v 0.035838 0.696753 0.545803
v 0.025692 0.689913 0.548611
v 0.025692 0.696753 0.548611
v 0.035838 0.696753 0.548611
v 0.035838 0.689913 0.548611
v 0.025692 0.741402 0.548611
v 0.025692 0.748242 0.548611
v 0.035838 0.748242 0.548611
v 0.035838 0.741402 0.548611
v 0.035838 0.661833 0.545803
v 0.025692 0.661833 0.545803
v 0.035838 0.661833 0.548611
v 0.025692 0.661833 0.548611
v 0.025692 0.776322 0.545803
v 0.035838 0.776322 0.545803
v 0.025692 0.776322 0.548611
v 0.035838 0.776322 0.548611
v 0.025692 0.741402 0.545803
v 0.035838 0.741402 0.545803
v 0.025692 0.741402 0.548611
v 0.035838 0.741402 0.548611
vn -1.0000 0.0000 0.0000
vn 0.0000 1.0000 0.0000
vn 1.0000 0.0000 0.0000
vn 0.0000 -1.0000 0.0000
vn 0.0000 0.0000 -1.0000
vn 0.0000 0.0000 1.0000
usemtl Handle
s off
f 1//1 2//1 4//1 3//1
f 3//2 4//2 8//2 7//2
f 7//3 8//3 6//3 5//3
f 5//4 6//4 2//4 1//4
f 3//5 7//5 5//5 1//5
f 8//5 4//5 29//5 30//5
f 9//1 10//1 12//1 11//1
f 11//2 12//2 16//2 15//2
f 15//3 16//3 14//3 13//3
f 13//4 14//4 10//4 9//4
f 11//5 15//5 13//5 9//5
f 12//1 10//1 17//1 18//1
f 19//6 18//6 17//6 20//6
f 20//6 17//6 28//6 27//6
f 18//6 19//6 36//6 35//6
f 14//3 16//3 19//3 20//3
f 23//6 22//6 21//6 24//6
f 6//3 8//3 23//3 24//3
f 4//1 2//1 21//1 22//1
f 2//4 6//4 24//4 21//4
f 26//4 25//4 27//4 28//4
f 10//5 14//5 25//5 26//5
f 14//3 20//3 27//3 25//3
f 17//1 10//1 26//1 28//1
f 30//2 29//2 31//2 32//2
f 4//1 22//1 31//1 29//1
f 23//3 8//3 30//3 32//3
f 22//6 23//6 32//6 31//6
f 34//2 33//2 35//2 36//2
f 16//5 12//5 33//5 34//5
f 19//3 16//3 34//3 36//3
f 12//1 18//1 35//1 33//1
f 37//1 38//1 40//1 39//1
f 39//2 40//2 44//2 43//2
f 43//3 44//3 42//3 41//3
f 41//4 42//4 38//4 37//4
f 39//5 43//5 41//5 37//5
f 44//5 40//5 65//5 66//5
f 45//1 46//1 48//1 47//1
f 47//2 48//2 52//2 51//2
f 51//3 52//3 50//3 49//3
f 49//4 50//4 46//4 45//4
f 47//5 51//5 49//5 45//5
f 48//1 46//1 53//1 54//1
f 55//6 54//6 53//6 56//6
f 56//6 53//6 64//6 63//6
f 54//6 55//6 72//6 71//6
f 50//3 52//3 55//3 56//3
f 59//6 58//6 57//6 60//6
f 42//3 44//3 59//3 60//3
f 40//1 38//1 57//1 58//1
f 38//4 42//4 60//4 57//4
f 62//4 61//4 63//4 64//4
f 46//5 50//5 61//5 62//5
f 50//3 56//3 63//3 61//3
f 53//1 46//1 62//1 64//1
f 66//2 65//2 67//2 68//2
f 40//1 58//1 67//1 65//1
f 59//3 44//3 66//3 68//3
f 58//6 59//6 68//6 67//6
f 70//2 69//2 71//2 72//2
f 52//5 48//5 69//5 70//5
f 55//3 52//3 70//3 72//3
f 48//1 54//1 71//1 69//1
o Cover_Right_Plane.003
v 0.419829 0.942733 0.512195
v 0.419829 -0.045696 0.512195
v 0.004841 0.942733 0.512195
v 0.004841 -0.045696 0.512195
v 0.050577 0.896997 0.530348
v 0.374093 0.896997 0.530348
v 0.374093 0.000040 0.530348
v 0.050577 0.000040 0.530348
v 0.032872 0.914702 0.530348
v 0.391797 0.914702 0.530348
v 0.391798 -0.017665 0.530348
v 0.032872 -0.017665 0.530348
v 0.004841 0.942733 0.530348
v 0.419829 0.942733 0.530348
v 0.419829 -0.045696 0.530348
v 0.004841 -0.045696 0.530348
v 0.054555 0.893019 0.530348
v 0.370115 0.893019 0.530348
v 0.370115 0.004018 0.530348
v 0.054555 0.004018 0.530348
v 0.066582 0.880993 0.520348
v 0.358088 0.880993 0.520348
v 0.358088 0.016044 0.520348
v 0.066582 0.016044 0.520348
v 0.038551 0.909024 0.530348
v 0.386119 0.909024 0.530348
v 0.386119 -0.011987 0.530348
v 0.038551 -0.011987 0.530348
v 0.391797 0.914702 0.535348
v 0.386119 0.909024 0.535348
v 0.038551 0.909024 0.535348
v 0.032872 0.914702 0.535348
v 0.391798 -0.017665 0.535348
v 0.386119 -0.011987 0.535348
v 0.032872 -0.017665 0.535348
v 0.038551 -0.011987 0.535348
v 0.054555 0.893019 0.535348
v 0.050577 0.896997 0.535348
v 0.374093 0.896997 0.535348
v 0.370115 0.893019 0.535348
v 0.374093 0.000040 0.535348
v 0.370115 0.004018 0.535348
v 0.050577 0.000040 0.535348
v 0.054555 0.004018 0.535348
vn -0.0000 0.0000 1.0000
vn -0.0000 1.0000 0.0000
vn 0.0000 -1.0000 0.0000
vn 1.0000 0.0000 0.0000
vn -1.0000 -0.0000 0.0000
vn 0.0000 0.0000 -1.0000
vn -0.0000 0.6394 -0.7689
vn 0.6394 0.0000 -0.7689
vn 0.0000 -0.6394 -0.7689
vn -0.6394 -0.0000 -0.7689
usemtl Body
s off
f 73//7 75//7 76//7 74//7
f 74//8 76//8 88//8 87//8
f 75//9 73//9 86//9 85//9
f 76//10 75//10 85//10 88//10
f 73//11 74//11 87//11 86//11
f 77//9 78//9 111//9 110//9
f 99//10 98//10 102//10 106//10
f 89//11 92//11 116//11 109//11
f 98//8 97//8 103//8 102//8
f 82//12 81//12 85//12 86//12
f 83//12 82//12 86//12 87//12
f 84//12 83//12 87//12 88//12
f 81//12 84//12 88//12 85//12
f 92//9 91//9 114//9 116//9
f 84//10 81//10 104//10 107//10
f 91//10 90//10 112//10 114//10
f 83//8 84//8 107//8 105//8
f 89//13 90//13 94//13 93//13
f 90//14 91//14 95//14 94//14
f 91//15 92//15 96//15 95//15
f 92//16 89//16 93//16 96//16
f 78//12 77//12 97//12 98//12
f 79//12 78//12 98//12 99//12
f 80//12 79//12 99//12 100//12
f 77//12 80//12 100//12 97//12
f 102//12 103//12 104//12 101//12
f 106//12 102//12 101//12 105//12
f 108//12 106//12 105//12 107//12
f 103//12 108//12 107//12 104//12
f 110//12 111//12 112//12 109//12
f 111//12 113//12 114//12 112//12
f 113//12 115//12 116//12 114//12
f 115//12 110//12 109//12 116//12
f 100//9 99//9 106//9 108//9
f 78//11 79//11 113//11 111//11
f 97//11 100//11 108//11 103//11
f 79//8 80//8 115//8 113//8
f 81//9 82//9 101//9 104//9
f 80//10 77//10 110//10 115//10
f 82//11 83//11 105//11 101//11
f 90//8 89//8 109//8 112//8
usemtl Glass
f 94//12 95//12 96//12 93//12
o Cover_Left_Plane.002
v -0.006621 0.942733 0.512195
v -0.006621 -0.045696 0.512195
v -0.421609 0.942733 0.512195
v -0.421609 -0.045696 0.512195
v -0.375729 0.896853 0.530348
v -0.052502 0.896853 0.530348
v -0.052502 0.000184 0.530348
v -0.375728 0.000184 0.530348
v -0.392515 0.913640 0.530348
v -0.035715 0.913640 0.530348
v -0.035715 -0.016603 0.530348
v -0.392515 -0.016603 0.530348
v -0.421609 0.942733 0.530348
v -0.006621 0.942733 0.530348
v -0.006621 -0.045696 0.530348
v -0.421609 -0.045696 0.530348
v -0.373101 0.894226 0.530348
v -0.055129 0.894226 0.530348
v -0.055129 0.002811 0.530348
v -0.373101 0.002811 0.530348
v -0.359868 0.880993 0.520348
v -0.068362 0.880993 0.520348
v -0.068362 0.016044 0.520348
v -0.359868 0.016044 0.520348
v -0.388962 0.910086 0.530348
v -0.039268 0.910086 0.530348
v -0.039268 -0.013049 0.530348
v -0.388962 -0.013049 0.530348
v -0.035715 0.913640 0.535348
v -0.039268 0.910086 0.535348
v -0.388962 0.910086 0.535348
v -0.392515 0.913640 0.535348
v -0.035715 -0.016603 0.535348
v -0.039268 -0.013049 0.535348
v -0.392515 -0.016603 0.535348
v -0.388962 -0.013049 0.535348
v -0.373101 0.894226 0.535348
v -0.375729 0.896853 0.535348
v -0.052502 0.896853 0.535348
v -0.055129 0.894226 0.535348
v -0.052502 0.000184 0.535348
v -0.055129 0.002811 0.535348
v -0.375728 0.000184 0.535348
v -0.373101 0.002811 0.535348
vn -0.0000 0.0000 1.0000
vn -0.0000 1.0000 0.0000
vn 0.0000 -1.0000 0.0000
vn 1.0000 0.0000 0.0000
vn -1.0000 -0.0000 0.0000
vn 0.0000 0.0000 -1.0000
vn -0.0000 0.6029 -0.7978
vn 0.6029 0.0000 -0.7978
vn 0.0000 -0.6029 -0.7978
vn -0.6029 0.0000 -0.7978
usemtl Body
s off
f 117//17 119//17 120//17 118//17
f 118//18 120//18 132//18 131//18
f 119//19 117//19 130//19 129//19
f 120//20 119//20 129//20 132//20
f 117//21 118//21 131//21 130//21
f 121//19 122//19 155//19 154//19
f 143//20 142//20 146//20 150//20
f 133//21 136//21 160//21 153//21
f 142//18 141//18 147//18 146//18
f 126//22 125//22 129//22 130//22
f 127//22 126//22 130//22 131//22
f 128//22 127//22 131//22 132//22
f 125//22 128//22 132//22 129//22
f 136//19 135//19 158//19 160//19
f 128//20 125//20 148//20 151//20
f 135//20 134//20 156//20 158//20
f 127//18 128//18 151//18 149//18
f 133//23 134//23 138//23 137//23
f 134//24 135//24 139//24 138//24
f 135//25 136//25 140//25 139//25
f 136//26 133//26 137//26 140//26
f 122//22 121//22 141//22 142//22
f 123//22 122//22 142//22 143//22
f 124//22 123//22 143//22 144//22
f 121//22 124//22 144//22 141//22
f 146//22 147//22 148//22 145//22
f 150//22 146//22 145//22 149//22
f 152//22 150//22 149//22 151//22
f 147//22 152//22 151//22 148//22
f 154//22 155//22 156//22 153//22
f 155//22 157//22 158//22 156//22
f 157//22 159//22 160//22 158//22
f 159//22 154//22 153//22 160//22
f 144//19 143//19 150//19 152//19
f 122//21 123//21 157//21 155//21
f 141//21 144//21 152//21 147//21
f 123//18 124//18 159//18 157//18
f 125//19 126//19 145//19 148//19
f 124//20 121//20 154//20 159//20
f 126//21 127//21 149//21 145//21
f 134//18 133//18 153//18 156//18
usemtl Glass
f 138//22 139//22 140//22 137//22
o Body_Plane.001
v -0.440348 0.949352 0.530348
v 0.440348 0.949352 0.530348
v -0.440348 0.949352 -0.530348
v 0.440348 0.949352 -0.530348
v -0.440348 -0.050648 0.530348
v 0.440348 -0.050648 0.530348
v -0.440348 -0.050648 -0.530348
v 0.440348 -0.050648 -0.530348
v -0.440348 0.969352 -0.530348
v -0.440348 0.969352 0.530348
v 0.440348 0.969352 0.530348
v 0.440348 0.969352 -0.530348
v -0.440348 -0.070648 -0.530348
v -0.440348 -0.070648 0.530348
v 0.440348 -0.070648 0.530348
v 0.440348 -0.070648 -0.530348
v -0.426783 -0.050648 0.530348
v 0.426783 -0.050648 0.530348
v 0.426783 -0.050648 -0.530348
v -0.426783 -0.050648 -0.530348
v -0.426783 -0.070648 0.530348
v 0.426783 -0.070648 0.530348
v 0.426783 -0.070648 -0.530348
v -0.426783 -0.070648 -0.530348
v -0.426783 0.949352 0.530348
v 0.426783 0.949352 0.530348
v 0.426783 0.949352 -0.530348
v -0.426783 0.949352 -0.530348
v -0.426783 0.969352 0.530348
v 0.426783 0.969352 0.530348
v 0.426783 0.969352 -0.530348
v -0.426783 0.969352 -0.530348
v -0.440348 -0.050648 -0.530348
v -0.440348 -0.050648 0.530348
v -0.426783 -0.050648 -0.530348
v -0.426783 -0.050648 0.530348
v 0.426783 -0.050648 0.530348
v 0.440348 -0.050648 0.530348
v 0.440348 -0.050648 -0.530348
v 0.426783 -0.050648 -0.530348
v -0.426783 -0.050648 -0.580348
v -0.440348 -0.050648 -0.580348
v -0.426783 -0.070648 -0.580348
v -0.440348 -0.070648 -0.580348
v 0.440348 -0.070648 -0.580348
v 0.440348 -0.050648 -0.580348
v 0.426783 -0.050648 -0.580348
v 0.426783 -0.070648 -0.580348
v -0.426783 0.949352 -0.580348
v -0.440348 0.949352 -0.580348
v -0.426783 0.969352 -0.580348
v -0.440348 0.969352 -0.580348
v 0.440348 0.969352 -0.580348
v 0.440348 0.949352 -0.580348
v 0.426783 0.949352 -0.580348
v 0.426783 0.969352 -0.580348
v -0.426783 -0.050648 -0.530348
v -0.440348 -0.050648 -0.530348
v 0.440348 -0.050648 -0.530348
v 0.426783 -0.050648 -0.530348
v -0.426783 -0.050648 -0.580348
v -0.440348 -0.050648 -0.580348
v 0.440348 -0.050648 -0.580348
v 0.426783 -0.050648 -0.580348
v 0.359576 -0.070648 0.417039
v 0.347231 -0.070648 0.418995
v 0.336094 -0.070648 0.424669
v 0.327256 -0.070648 0.433507
v 0.321581 -0.070648 0.444644
v 0.319626 -0.070648 0.456989
v 0.321581 -0.070648 0.469334
v 0.327256 -0.070648 0.480471
v 0.336094 -0.070648 0.489309
v 0.347231 -0.070648 0.494983
v 0.359576 -0.070648 0.496938
v 0.371921 -0.070648 0.494983
v 0.383058 -0.070648 0.489309
v 0.391896 -0.070648 0.480471
v 0.397570 -0.070648 0.469334
v 0.399525 -0.070648 0.456989
v 0.397570 -0.070648 0.444644
v 0.391896 -0.070648 0.433507
v 0.383058 -0.070648 0.424669
v 0.371921 -0.070648 0.418995
v 0.347231 -0.129611 0.418995
v 0.359576 -0.129611 0.417039
v 0.336094 -0.129611 0.424669
v 0.327256 -0.129611 0.433507
v 0.321581 -0.129611 0.444644
v 0.319626 -0.129611 0.456989
v 0.321581 -0.129611 0.469334
v 0.327256 -0.129611 0.480471
v 0.336094 -0.129611 0.489309
v 0.347231 -0.129611 0.494983
v 0.359576 -0.129611 0.496938
v 0.371921 -0.129611 0.494983
v 0.383058 -0.129611 0.489309
v 0.391896 -0.129611 0.480471
v 0.397570 -0.129611 0.469334
v 0.399525 -0.129611 0.456989
v 0.397570 -0.129611 0.444644
v 0.391896 -0.129611 0.433507
v 0.383058 -0.129611 0.424669
v 0.371921 -0.129611 0.418995
v -0.366123 -0.070648 0.417039
v -0.378468 -0.070648 0.418995
v -0.389605 -0.070648 0.424669
v -0.398443 -0.070648 0.433507
v -0.404118 -0.070648 0.444644
v -0.406073 -0.070648 0.456989
v -0.404118 -0.070648 0.469334
v -0.398443 -0.070648 0.480471
v -0.389605 -0.070648 0.489309
v -0.378468 -0.070648 0.494983
v -0.366123 -0.070648 0.496938
v -0.353778 -0.070648 0.494983
v -0.342641 -0.070648 0.489309
v -0.333803 -0.070648 0.480471
v -0.328129 -0.070648 0.469334
v -0.326174 -0.070648 0.456989
v -0.328129 -0.070648 0.444644
v -0.333803 -0.070648 0.433507
v -0.342642 -0.070648 0.424669
v -0.353778 -0.070648 0.418995
v -0.378468 -0.129611 0.418995
v -0.366123 -0.129611 0.417039
v -0.389605 -0.129611 0.424669
v -0.398443 -0.129611 0.433507
v -0.404118 -0.129611 0.444644
v -0.406073 -0.129611 0.456989
v -0.404118 -0.129611 0.469334
v -0.398443 -0.129611 0.480471
v -0.389605 -0.129611 0.489309
v -0.378468 -0.129611 0.494983
v -0.366123 -0.129611 0.496938
v -0.353778 -0.129611 0.494983
v -0.342641 -0.129611 0.489309
v -0.333803 -0.129611 0.480471
v -0.328129 -0.129611 0.469334
v -0.326174 -0.129611 0.456989
v -0.328129 -0.129611 0.444644
v -0.333803 -0.129611 0.433507
v -0.342642 -0.129611 0.424669
v -0.353778 -0.129611 0.418995
v -0.366123 -0.070648 -0.512433
v -0.378468 -0.070648 -0.510477
v -0.389605 -0.070648 -0.504803
v -0.398443 -0.070648 -0.495965
v -0.404118 -0.070648 -0.484828
v -0.406073 -0.070648 -0.472483
v -0.404118 -0.070648 -0.460138
v -0.398443 -0.070648 -0.449001
v -0.389605 -0.070648 -0.440163
v -0.378468 -0.070648 -0.434489
v -0.366123 -0.070648 -0.432533
v -0.353778 -0.070648 -0.434489
v -0.342641 -0.070648 -0.440163
v -0.333803 -0.070648 -0.449001
v -0.328129 -0.070648 -0.460138
v -0.326174 -0.070648 -0.472483
v -0.328129 -0.070648 -0.484828
v -0.333803 -0.070648 -0.495965
v -0.342642 -0.070648 -0.504803
v -0.353778 -0.070648 -0.510477
v -0.378468 -0.129611 -0.510477
v -0.366123 -0.129611 -0.512433
v -0.389605 -0.129611 -0.504803
v -0.398443 -0.129611 -0.495965
v -0.404118 -0.129611 -0.484828
v -0.406073 -0.129611 -0.472483
v -0.404118 -0.129611 -0.460138
v -0.398443 -0.129611 -0.449001
v -0.389605 -0.129611 -0.440163
v -0.378468 -0.129611 -0.434489
v -0.366123 -0.129611 -0.432533
v -0.353778 -0.129611 -0.434489
v -0.342641 -0.129611 -0.440163
v -0.333803 -0.129611 -0.449001
v -0.328129 -0.129611 -0.460138
v -0.326174 -0.129611 -0.472483
v -0.328129 -0.129611 -0.484828
v -0.333803 -0.129611 -0.495965
v -0.342642 -0.129611 -0.504803
v -0.353778 -0.129611 -0.510477
v 0.360838 -0.070648 -0.512433
v 0.348493 -0.070648 -0.510477
v 0.337356 -0.070648 -0.504803
v 0.328518 -0.070648 -0.495965
v 0.322844 -0.070648 -0.484828
v 0.320888 -0.070648 -0.472483
v 0.322844 -0.070648 -0.460138
v 0.328518 -0.070648 -0.449001
v 0.337356 -0.070648 -0.440163
v 0.348493 -0.070648 -0.434489
v 0.360838 -0.070648 -0.432533
v 0.373183 -0.070648 -0.434489
v 0.384320 -0.070648 -0.440163
v 0.393158 -0.070648 -0.449001
v 0.398832 -0.070648 -0.460138
v 0.400788 -0.070648 -0.472483
v 0.398832 -0.070648 -0.484828
v 0.393158 -0.070648 -0.495965
v 0.384320 -0.070648 -0.504803
v 0.373183 -0.070648 -0.510477
v 0.348493 -0.129611 -0.510477
v 0.360838 -0.129611 -0.512433
v 0.337356 -0.129611 -0.504803
v 0.328518 -0.129611 -0.495965
v 0.322844 -0.129611 -0.484828
v 0.320888 -0.129611 -0.472483
v 0.322844 -0.129611 -0.460138
v 0.328518 -0.129611 -0.449001
v 0.337356 -0.129611 -0.440163
v 0.348493 -0.129611 -0.434489
v 0.360838 -0.129611 -0.432533
v 0.373183 -0.129611 -0.434489
v 0.384320 -0.129611 -0.440163
v 0.393158 -0.129611 -0.449001
v 0.398832 -0.129611 -0.460138
v 0.400788 -0.129611 -0.472483
v 0.398832 -0.129611 -0.484828
v 0.393158 -0.129611 -0.495965
v 0.384320 -0.129611 -0.504803
v 0.373183 -0.129611 -0.510477
vn 0.0000 0.0000 -1.0000
vn 0.0000 -1.0000 0.0000
vn 0.0000 1.0000 0.0000
vn 0.0000 0.0000 1.0000
vn 1.0000 0.0000 0.0000
vn -1.0000 0.0000 0.0000
vn 0.7071 0.0000 0.7071
vn -0.7071 0.0000 0.7071
vn -0.1564 0.0000 -0.9877
vn 0.8910 0.0000 0.4540
vn -0.4540 0.0000 0.8910
vn -0.4540 0.0000 -0.8910
vn 0.9877 0.0000 0.1564
vn -0.1564 0.0000 0.9877
vn -0.7071 0.0000 -0.7071
vn 0.9877 0.0000 -0.1564
vn -0.8910 0.0000 -0.4540
vn 0.8910 0.0000 -0.4540
vn -0.9877 0.0000 -0.1564
vn 0.7071 0.0000 -0.7071
vn 0.1564 0.0000 0.9877
vn -0.9877 0.0000 0.1564
vn 0.4540 0.0000 -0.8910
vn 0.4540 0.0000 0.8910
vn -0.8910 0.0000 0.4540
vn 0.1564 0.0000 -0.9877
usemtl Body
s off
f 187//27 164//27 199//27 200//27
f 178//28 179//28 168//28 166//28
f 190//29 171//29 172//29 191//29
f 169//29 192//29 211//29 212//29
f 186//30 162//30 171//30 190//30
f 162//31 164//31 172//31 171//31
f 163//32 161//32 170//32 169//32
f 182//29 175//29 176//29 183//29
f 168//28 179//28 207//28 206//28
f 178//27 166//27 175//27 182//27
f 166//32 168//32 176//32 175//32
f 167//31 165//31 174//31 173//31
f 165//27 177//27 181//27 174//27
f 177//27 178//27 182//27 181//27
f 173//29 184//29 203//29 204//29
f 183//29 176//29 205//29 208//29
f 174//29 181//29 184//29 173//29
f 181//29 182//29 183//29 184//29
f 165//28 167//28 180//28 177//28
f 177//28 180//28 179//28 178//28
f 161//30 185//30 189//30 170//30
f 185//30 186//30 190//30 189//30
f 172//31 164//31 214//31 213//31
f 191//29 172//29 213//29 216//29
f 170//29 189//29 192//29 169//29
f 189//29 190//29 191//29 192//29
f 185//30 161//30 194//30 196//30
f 185//28 188//28 187//28 186//28
f 194//28 193//28 195//28 196//28
f 163//27 188//27 195//27 193//27
f 188//31 185//31 196//31 195//31
f 161//32 163//32 193//32 194//32
f 197//28 200//28 199//28 198//28
f 162//30 186//30 197//30 198//30
f 164//31 162//31 198//31 199//31
f 186//32 187//32 200//32 197//32
f 201//30 202//30 204//30 203//30
f 206//30 207//30 208//30 205//30
f 207//30 201//30 203//30 208//30
f 184//29 183//29 208//29 203//29
f 167//31 173//31 204//31 202//31
f 180//28 167//28 202//28 201//28
f 179//28 180//28 201//28 207//28
f 176//32 168//32 206//32 205//32
f 209//27 210//27 212//27 211//27
f 214//27 215//27 216//27 213//27
f 215//27 209//27 211//27 216//27
f 164//30 187//30 220//30 219//30
f 192//29 191//29 216//29 211//29
f 210//27 209//27 221//27 222//27
f 163//32 169//32 212//32 210//32
f 215//27 214//27 223//27 224//27
f 219//28 220//28 224//28 223//28
f 217//28 218//28 222//28 221//28
f 220//28 217//28 221//28 224//28
f 209//27 215//27 224//27 221//27
f 163//32 210//32 222//32 218//32
f 188//30 163//30 218//30 217//30
f 214//31 164//31 219//31 223//31
f 187//30 188//30 217//30 220//30
f 226//28 225//28 244//28 243//28 242//28 241//28 240//28 239//28 238//28 237//28 236//28 235//28 234//28 233//28 232//28 231//28 230//28 229//28 228//28 227//28
f 245//29 247//29 248//29 249//29 250//29 251//29 252//29 253//29 254//29 255//29 256//29 257//29 258//29 259//29 260//29 261//29 262//29 263//29 264//29 246//29
f 227//33 228//33 248//33 247//33
f 242//34 243//34 263//34 262//34
f 235//35 236//35 256//35 255//35
f 228//36 229//36 249//36 248//36
f 243//37 244//37 264//37 263//37
f 236//38 237//38 257//38 256//38
f 229//39 230//39 250//39 249//39
f 244//40 225//40 246//40 264//40
f 237//41 238//41 258//41 257//41
f 230//42 231//42 251//42 250//42
f 238//43 239//43 259//43 258//43
f 231//44 232//44 252//44 251//44
f 239//45 240//45 260//45 259//45
f 232//46 233//46 253//46 252//46
f 225//47 226//47 245//47 246//47
f 240//48 241//48 261//48 260//48
f 233//49 234//49 254//49 253//49
f 226//50 227//50 247//50 245//50
f 241//51 242//51 262//51 261//51
f 234//52 235//52 255//52 254//52
f 285//29 287//29 288//29 289//29 290//29 291//29 292//29 293//29 294//29 295//29 296//29 297//29 298//29 299//29 300//29 301//29 302//29 303//29 304//29 286//29
f 267//33 268//33 288//33 287//33
f 282//34 283//34 303//34 302//34
f 275//35 276//35 296//35 295//35
f 268//36 269//36 289//36 288//36
f 283//37 284//37 304//37 303//37
f 276//38 277//38 297//38 296//38
f 269//39 270//39 290//39 289//39
f 284//40 265//40 286//40 304//40
f 277//41 278//41 298//41 297//41
f 270//42 271//42 291//42 290//42
f 278//43 279//43 299//43 298//43
f 271//44 272//44 292//44 291//44
f 279//45 280//45 300//45 299//45
f 272//46 273//46 293//46 292//46
f 265//47 266//47 285//47 286//47
f 280//48 281//48 301//48 300//48
f 273//49 274//49 294//49 293//49
f 266//50 267//50 287//50 285//50
f 281//51 282//51 302//51 301//51
f 274//52 275//52 295//52 294//52
f 325//29 327//29 328//29 329//29 330//29 331//29 332//29 333//29 334//29 335//29 336//29 337//29 338//29 339//29 340//29 341//29 342//29 343//29 344//29 326//29
f 307//33 308//33 328//33 327//33
f 322//34 323//34 343//34 342//34
f 315//35 316//35 336//35 335//35
f 308//36 309//36 329//36 328//36
f 323//37 324//37 344//37 343//37
f 316//38 317//38 337//38 336//38
f 309//39 310//39 330//39 329//39
f 324//40 305//40 326//40 344//40
f 317//41 318//41 338//41 337//41
f 310//42 311//42 331//42 330//42
f 318//43 319//43 339//43 338//43
f 311//44 312//44 332//44 331//44
f 319//45 320//45 340//45 339//45
f 312//46 313//46 333//46 332//46
f 305//47 306//47 325//47 326//47
f 320//48 321//48 341//48 340//48
f 313//49 314//49 334//49 333//49
f 306//50 307//50 327//50 325//50
f 321//51 322//51 342//51 341//51
f 314//52 315//52 335//52 334//52
f 365//29 367//29 368//29 369//29 370//29 371//29 372//29 373//29 374//29 375//29 376//29 377//29 378//29 379//29 380//29 381//29 382//29 383//29 384//29 366//29
f 347//33 348//33 368//33 367//33
f 362//34 363//34 383//34 382//34
f 355//35 356//35 376//35 375//35
f 348//36 349//36 369//36 368//36
f 363//37 364//37 384//37 383//37
f 356//38 357//38 377//38 376//38
f 349//39 350//39 370//39 369//39
f 364//40 345//40 366//40 384//40
f 357//41 358//41 378//41 377//41
f 350//42 351//42 371//42 370//42
f 358//43 359//43 379//43 378//43
f 351//44 352//44 372//44 371//44
f 359//45 360//45 380//45 379//45
f 352//46 353//46 373//46 372//46
f 345//47 346//47 365//47 366//47
f 360//48 361//48 381//48 380//48
f 353//49 354//49 374//49 373//49
f 346//50 347//50 367//50 365//50
f 361//51 362//51 382//51 381//51
f 354//52 355//52 375//52 374//52
